<svg enable-background="new 0 0 64 64" height="512" viewBox="0 0 64 64" width="512" xmlns="http://www.w3.org/2000/svg"><g id="Icons"><g><path d="m60 22v36c0 1.1-.9 2-2 2h-52c-1.1 0-2-.9-2-2v-36c0-1.1.9-2 2-2h52c1.1 0 2 .9 2 2z" fill="#00a0c8"/><path d="m48 51v7c0 .82-.94 1.29-1.6.8l-2.4-1.8-2.4 1.8c-.66.49-1.6.02-1.6-.8v-7z" fill="#0082aa"/><path d="m48 20v.28c0 10.69-6.21 16.82-15.64 20.57-.24.1-.52.1-.77 0-9.4-3.77-15.59-9.91-15.59-20.57v-.28z" fill="#0082aa"/><path d="m56 30.98v18.05c0 .56-.47.97-1.02.97-2.69-.01-4.99 2.27-4.99 4.97 0 .56-.42 1.03-.98 1.03h-34.03c-.56 0-.97-.47-.97-1.02 0-2.69-2.27-4.99-4.98-4.99-.56 0-1.03-.42-1.03-.98v-18.02c0-.56.47-.98 1.03-.98 2.7.01 4.98-2.28 4.98-4.98 0-.56.42-1.03.98-1.03h34.02c.56 0 .98.47.98 1.03 0 2.7 2.29 4.97 4.98 4.98.56 0 1.03.41 1.03.97z" fill="#f0f0f0"/><circle cx="44" cy="47" fill="#d2d2d2" r="6"/><path d="m47.72 24c-1.29 8.43-7.08 13.56-15.36 16.85-.24.1-.52.1-.77 0-8.25-3.31-14.02-8.44-15.31-16.85z" fill="#d2d2d2"/><g fill="#00143c"><path d="m31 46h-16c-.552 0-1-.448-1-1s.448-1 1-1h16c.552 0 1 .448 1 1s-.448 1-1 1z"/><path d="m31 50h-14c-.552 0-1-.448-1-1s.448-1 1-1h14c.552 0 1 .448 1 1s-.448 1-1 1z"/></g><path d="m46.081 9.095c1.053.075 1.919.937 1.919 1.993v8.197c0 10.539-6.041 16.652-15.261 20.412-.485.198-1.041.197-1.525-.003-9.186-3.783-15.214-9.896-15.214-20.409l.01-8.201c.001-1.054.866-1.915 1.917-1.991 1.942-.139 3.688-1.565 4.269-3.608.247-.87 1.02-1.485 1.925-1.485h15.757c.905 0 1.678.614 1.926 1.485.581 2.049 2.332 3.471 4.277 3.61z" fill="#fab400"/><path d="m31.98 36.764c-8.852-3.752-12.98-9.315-12.98-17.479l.009-7.313c2.626-.502 4.851-2.391 5.841-4.972h14.3c.991 2.583 3.22 4.473 5.851 4.974v7.311c-.001 8.19-4.141 13.753-13.021 17.479z" fill="#00143c"/><path d="m33 20h-2c-1.105 0-2-.895-2-2s.895-2 2-2h2c.883 0 1.633.573 1.898 1.368.131.394.538.632.954.632.656 0 1.152-.639.945-1.261-.528-1.592-2.029-2.739-3.797-2.739v-1c0-.552-.448-1-1-1s-1 .448-1 1v1c-2.209 0-4 1.791-4 4s1.791 4 4 4h2c1.105 0 2 .895 2 2s-.895 2-2 2h-2c-.883 0-1.633-.573-1.898-1.368-.131-.395-.538-.632-.954-.632-.656 0-1.152.639-.945 1.261.528 1.592 2.029 2.739 3.797 2.739v1c0 .552.448 1 1 1s1-.448 1-1v-1c2.209 0 4-1.791 4-4s-1.791-4-4-4z" fill="#f0f0f0"/><g><path d="m48 50.001v7c0 .82-.94 1.29-1.6.8l-2.4-1.8-2.4 1.8c-.66.49-1.6.02-1.6-.8v-7z" fill="#c80a50"/><path d="m48 50.001v7c0 .82-.94 1.29-1.6.8l-2.4-1.8v-6z" fill="#00143c"/><circle cx="44" cy="46.001" fill="#0082aa" r="6"/><circle cx="44" cy="46.001" fill="#fab400" r="4"/></g><path d="m46 45.001h-1v-1c0-.552-.448-1-1-1s-1 .448-1 1v1h-1c-.552 0-1 .448-1 1s.448 1 1 1h1v1c0 .552.448 1 1 1s1-.448 1-1v-1h1c.552 0 1-.448 1-1s-.448-1-1-1z" fill="#00143c"/><g fill="#f0f0f0"><circle cx="56" cy="24" r="2"/><circle cx="8" cy="24" r="2"/><circle cx="56" cy="56" r="2"/><circle cx="8" cy="56" r="2"/></g></g></g></svg>