<?xml version="1.0" encoding="iso-8859-1"?>
<!-- Generator: Adobe Illustrator 19.0.0, SVG Export Plug-In . SVG Version: 6.00 Build 0)  -->
<svg version="1.1" id="Capa_1" xmlns="http://www.w3.org/2000/svg" xmlns:xlink="http://www.w3.org/1999/xlink" x="0px" y="0px"
	 viewBox="0 0 512 512" style="enable-background:new 0 0 512 512;" xml:space="preserve">
<circle style="fill:#A7A951;" cx="446.192" cy="315.493" r="20.604"/>
<path style="fill:#CF8575;" d="M34.579,236.168c-2.5-4.993-4.425-10.323-5.701-15.902l39.048-6.68l68.928,51.814l-68.512,51.902
	l-39.464-6.767c1.276-5.578,3.201-10.909,5.701-15.902C43.819,276.18,43.819,254.621,34.579,236.168z"/>
<path style="fill:#BE6054;" d="M55.805,343.36c-12.745,7.153-28.667-1.955-28.728-16.57c0-0.099-0.001-0.199-0.001-0.299
	c0-5.487,0.626-10.826,1.801-15.957l107.976-45.134C116.878,297.45,88.941,324.766,55.805,343.36z"/>
<g>
	<path style="fill:#E1A996;" d="M27.077,204.31c0-0.099,0-0.199,0.001-0.298c0.06-14.615,15.981-23.724,28.728-16.57
		c33.136,18.595,61.073,45.911,81.048,77.96L28.878,220.267C27.704,215.136,27.077,209.796,27.077,204.31z"/>
	<path style="fill:#E1A996;" d="M206.828,126.826l76.764,25.255l2.575,54.085H186.095V163.85
		C186.095,148.464,194.195,134.62,206.828,126.826z"/>
</g>
<path style="fill:#CF8575;" d="M217.717,121.994c15.068-4.364,30.564-7.471,46.35-9.275l71.034,29.06l17.257,59.231
	c-4.752,3.208-10.568,5.155-17.192,5.155h-48.998l-79.339-79.339C210.165,124.766,213.813,123.124,217.717,121.994z"/>
<path style="fill:#BE6054;" d="M296.346,110.873c11.42,0,22.37,4.536,30.445,12.61l30.139,30.139
	c14.705,14.705,10.348,37.314-4.572,47.386l-88.291-88.291C274.709,111.503,285.482,110.873,296.346,110.873z"/>
<path style="fill:#CE9276;" d="M291.855,159.807c72.839,0,137.423,35.418,177.614,90.017c-3.706,5.034-7.209,10.229-10.488,15.576
	c3.278,5.349,6.782,10.542,10.488,15.576c-40.19,54.599-104.775,90.017-177.614,90.017c-69.259,0-131.059-32.018-171.517-82.102
	c-11.086-13.724-11.086-33.258,0-46.982C160.797,191.825,222.597,159.807,291.855,159.807z"/>
<path style="fill:#DFB296;" d="M291.855,159.807c69.314,0,131.135,32.087,171.59,82.239
	c-40.244,42.907-97.346,69.712-160.702,69.712c-48.355,0-93.095-15.636-129.467-42.12c-26.515-19.307-25.231-59.417,2.617-76.746
	C209.581,171.929,249.297,159.807,291.855,159.807z"/>
<path style="opacity:0.4;fill:#BD7155;enable-background:new    ;" d="M311.677,160.695c64.658,5.777,121.287,39.538,157.791,89.129
	c-3.706,5.034-7.209,10.228-10.488,15.576c3.278,5.348,6.782,10.542,10.488,15.576c-29.589,40.197-72.408,69.975-122.001,82.9
	c-37.945-25.981-62.845-69.62-62.845-119.08C284.623,213.41,294.653,184.369,311.677,160.695z"/>
<path style="fill:#BE6054;" d="M469.481,296.43c3.181,0,6.39-0.979,9.148-3.009c6.872-5.059,8.343-14.733,3.284-21.606
	c-1.553-2.11-3.069-4.253-4.54-6.416c1.47-2.163,2.985-4.305,4.54-6.416c5.059-6.873,3.589-16.547-3.284-21.606
	c-6.873-5.06-16.546-3.589-21.606,3.284c-3.986,5.415-7.76,11.021-11.218,16.662c-3.038,4.955-3.038,11.196,0,16.151
	c3.457,5.641,7.233,11.247,11.218,16.662C460.053,294.253,464.736,296.43,469.481,296.43z"/>
<path style="opacity:0.4;fill:#BD7155;enable-background:new    ;" d="M379.914,311.759c25.562,0,46.358-20.796,46.358-46.358
	s-20.796-46.358-46.358-46.358c-25.562,0-46.358,20.796-46.358,46.358C333.556,290.962,354.352,311.759,379.914,311.759z"/>
<path style="fill:#DAC69C;" d="M379.914,296.306c-17.041,0-30.905-13.864-30.905-30.905s13.864-30.905,30.905-30.905
	c17.041,0,30.905,13.864,30.905,30.905S396.956,296.306,379.914,296.306z"/>
<path style="fill:#E6D8B3;" d="M349.009,265.4c0,3.832,0.707,7.501,1.987,10.89c3.389,1.281,7.058,1.987,10.89,1.987
	c17.041,0,30.905-13.864,30.905-30.905c0-3.832-0.707-7.501-1.987-10.89c-3.389-1.281-7.058-1.987-10.89-1.987
	C362.873,234.495,349.009,248.359,349.009,265.4z"/>
<circle style="fill:#47423F;" cx="379.91" cy="265.395" r="7.726"/>
<path style="fill:#FEFBE1;" d="M238.773,286.179c-14.907-14.917-35.51-24.127-58.288-24.127s-43.381,9.21-58.288,24.127
	c-9.87,9.864-17.242,22.222-21.1,36.053c-3.115,11.169,5.278,22.234,16.873,22.234h62.514H243c11.595,0,19.989-11.066,16.873-22.234
	C256.015,308.401,248.643,296.043,238.773,286.179z"/>
<path style="fill:#F6EEA4;" d="M242.297,344.467h-61.811l43.709-43.707l0.007-0.008
	C235.389,311.932,242.297,327.384,242.297,344.467z"/>
<path style="fill:#EFE388;" d="M224.201,300.751l-0.007,0.008l-43.709,43.707v-61.811
	C197.568,282.656,213.021,289.563,224.201,300.751z"/>
<path style="fill:#E7D96B;" d="M180.486,282.656v61.811l-43.709-43.707l-0.007-0.008
	C147.949,289.563,163.402,282.656,180.486,282.656z"/>
<path style="fill:#DFCE4E;" d="M180.486,344.467h-61.811c0-17.082,6.907-32.535,18.095-43.716l0.007,0.008L180.486,344.467z"/>
<circle style="fill:#7B7E4D;" cx="464.735" cy="344.626" r="20.604"/>
<circle style="fill:#A7A951;" cx="318.841" cy="344.626" r="20.604"/>
<circle style="fill:#7B7E4D;" cx="427.247" cy="344.626" r="20.604"/>
<circle style="fill:#A7A951;" cx="393.014" cy="344.626" r="20.604"/>
<path style="fill:#D5D2BD;" d="M428.632,401.127H83.368c-8.196,0-16.057-3.256-21.853-9.052L29.36,359.919h453.28l-32.155,32.155
	C444.689,397.87,436.828,401.127,428.632,401.127z"/>
<path style="fill:#E7E4CD;" d="M496.547,375.372H15.453C6.919,375.372,0,368.454,0,359.919l0,0c0-8.534,6.919-15.453,15.453-15.453
	h481.095c8.534,0,15.453,6.919,15.453,15.453l0,0C512,368.455,505.081,375.372,496.547,375.372z"/>
<g>
</g>
<g>
</g>
<g>
</g>
<g>
</g>
<g>
</g>
<g>
</g>
<g>
</g>
<g>
</g>
<g>
</g>
<g>
</g>
<g>
</g>
<g>
</g>
<g>
</g>
<g>
</g>
<g>
</g>
</svg>
